<svg xmlns="http://www.w3.org/2000/svg" enable-background="new 0 0 100 100" viewBox="0 0 100 100" width="256" height="256"><path fill="#ffffff" d="M26.449,13.496c-1.951,0-3.533,1.582-3.533,3.533v54.167c0,0.724,0.646-0.102,1.361-0.215
							l3.349-0.528V13.496H26.449z" class="colorfff svgShape"></path><path d="M23.06,72.669c-0.207,0-0.425-0.048-0.648-0.179c-0.252-0.146-0.673-0.509-0.673-1.294V17.029
							c0-2.598,2.113-4.71,4.71-4.71h2.355v59.14l-4.342,0.685c-0.075,0.015-0.261,0.12-0.372,0.184
							C23.856,72.46,23.486,72.669,23.06,72.669z M26.449,14.674c-1.299,0-2.355,1.057-2.355,2.355v52.789c0,0,0,0,0.001-0.001
							l2.354-0.371V14.674z" fill="#000000" class="color000 svgShape"></path><rect width="49.457" height="54.167" x="27.626" y="13.496" fill="#ffd44d" class="colorffd44d svgShape"></rect><path d="M78.261,68.841H26.449V12.318h51.812V68.841z M28.804,66.486h47.102V14.674H28.804V66.486z" fill="#000000" class="color000 svgShape"></path><path fill="#ffffff" d="M77.084,86.504H32.337c-5.203,0-9.42-4.218-9.42-9.42l0,0c0-5.203,4.217-9.42,9.42-9.42h44.747
						V86.504z" class="colorfff svgShape"></path><path d="M78.261,87.682H26.449c-2.598,0-4.71-2.113-4.71-4.71V71.196c0-2.598,2.113-4.71,4.71-4.71h51.812V87.682z
						 M26.449,68.841c-1.299,0-2.355,1.057-2.355,2.355v11.775c0,1.298,1.057,2.355,2.355,2.355h49.457V68.841H26.449z" fill="#000000" class="color000 svgShape"></path><rect width="16.486" height="2.355" x="44.112" y="19.384" fill="#000000" class="color000 svgShape"></rect><rect width="48.279" height="2.355" x="29.982" y="80.616" fill="#000000" class="color000 svgShape"></rect><rect width="48.279" height="2.355" x="29.982" y="75.906" fill="#000000" class="color000 svgShape"></rect><rect width="48.279" height="2.355" x="29.982" y="71.196" fill="#000000" class="color000 svgShape"></rect><path fill="#ffffff" d="M65.308,25.271H39.402c-1.951,0-3.533,1.582-3.533,3.533l0,0c0,1.951,1.582,3.533,3.533,3.533
			h25.906c1.951,0,3.533-1.582,3.533-3.533l0,0C68.841,26.853,67.259,25.271,65.308,25.271z" class="colorfff svgShape"></path><path d="M67.663,33.514H37.047c-1.299,0-2.355-1.057-2.355-2.355v-4.71c0-1.298,1.057-2.355,2.355-2.355h30.616
			c1.298,0,2.355,1.057,2.355,2.355v4.71C70.018,32.458,68.961,33.514,67.663,33.514z M37.047,26.449v4.71h30.616v-4.71H37.047z" fill="#000000" class="color000 svgShape"></path><g fill="#000000" class="color000 svgShape"><path fill="#ffffff" d="M52.355,37.047l-12.432,4.854c-1.071,0.584-0.656,2.211,0.564,2.211h23.735
					c1.22,0,1.635-1.627,0.564-2.211L52.355,37.047z" class="colorfff svgShape"></path><path d="M64.223,45.29H40.488c-1.095,0-2.011-0.713-2.283-1.773c-0.27-1.06,0.194-2.125,1.154-2.649l0.136-0.063l12.86-5.021
					l12.995,5.084c0.961,0.524,1.425,1.589,1.154,2.649C66.234,44.577,65.317,45.29,64.223,45.29z M40.513,42.935h23.684
					l-11.842-4.624L40.513,42.935z" fill="#000000" class="color000 svgShape"></path><rect width="25.906" height="4.71" x="39.402" y="57.065" fill="#ffffff" class="colorfff svgShape"></rect><path d="M66.486,62.953H38.224v-7.065h28.261V62.953z M40.58,60.598h23.551v-2.355H40.58V60.598z" fill="#000000" class="color000 svgShape"></path><rect width="4.71" height="12.953" x="40.58" y="44.112" fill="#ffffff" class="colorfff svgShape"></rect><path d="M46.467,58.243h-7.065V42.935h7.065V58.243z M41.757,55.888h2.355V45.29h-2.355V55.888z" fill="#000000" class="color000 svgShape"></path><rect width="4.71" height="12.953" x="50" y="44.112" fill="#ffffff" class="colorfff svgShape"></rect><path d="M55.888,58.243h-7.065V42.935h7.065V58.243z M51.178,55.888h2.355V45.29h-2.355V55.888z" fill="#000000" class="color000 svgShape"></path><g fill="#000000" class="color000 svgShape"><rect width="4.71" height="12.953" x="59.42" y="44.112" fill="#ffffff" class="colorfff svgShape"></rect><path d="M65.308,58.243h-7.065V42.935h7.065V58.243z M60.598,55.888h2.355V45.29h-2.355V55.888z" fill="#000000" class="color000 svgShape"></path></g></g></svg>