<svg xmlns="http://www.w3.org/2000/svg" enable-background="new 0 0 100 100" viewBox="0 0 100 100" width="256" height="256"><rect width="3.533" height="2.355" x="73.551" y="85.326" fill="#000000" class="color000 svgShape"></rect><path fill="#ffffff" d="M27.626,13.496c-1.951,0-3.533,1.582-3.533,3.533v65.943c0,0.723,0.647-0.102,1.361-0.215
						l3.349-0.529V13.496H27.626z" class="colorfff svgShape"></path><path d="M24.238,84.444c-0.207,0-0.426-0.048-0.649-0.179c-0.251-0.146-0.673-0.509-0.673-1.294V17.029
						c0-2.598,2.112-4.71,4.71-4.71h2.355v70.915l-4.342,0.685c-0.075,0.015-0.261,0.12-0.372,0.184
						C25.033,84.235,24.663,84.444,24.238,84.444z M27.626,14.674c-1.298,0-2.355,1.057-2.355,2.355v64.565c0,0,0,0,0.001-0.001
						l2.354-0.371V14.674z" fill="#000000" class="color000 svgShape"></path><polygon fill="#ffffff" points="28.804 13.496 28.804 82.228 46.467 79.439 75.906 79.439 75.906 13.496" class="colorfff svgShape"></polygon><path d="M27.626,83.605V12.318h49.457v68.298H46.559L27.626,83.605z M29.982,14.674V80.85l16.486-2.588h28.261V14.674H29.982z" fill="#000000" class="color000 svgShape"></path><path fill="#ffffff" d="M74.729,86.504H27.626c-1.951,0-3.533-1.582-3.533-3.533l0,0c0-1.951,1.582-3.533,3.533-3.533
					h47.102V86.504z" class="colorfff svgShape"></path><path d="M75.906,87.682h-48.28c-2.598,0-4.71-2.113-4.71-4.71c0-2.598,2.112-4.71,4.71-4.71h48.28V87.682z M27.626,80.616
					c-1.298,0-2.355,1.056-2.355,2.355c0,1.298,1.057,2.355,2.355,2.355h45.925v-4.71H27.626z" fill="#000000" class="color000 svgShape"></path><rect width="37.682" height="56.522" x="33.514" y="18.206" fill="#28b273" class="color28b273 svgShape"></rect><path d="M72.373,75.906H32.337V17.029h40.037V75.906z M34.692,73.551h35.326V19.384H34.692V73.551z" fill="#000000" class="color000 svgShape"></path><rect width="18.841" height="2.355" x="42.935" y="21.739" fill="#000000" class="color000 svgShape"></rect><rect width="11.776" height="2.355" x="46.467" y="26.449" fill="#000000" class="color000 svgShape"></rect><g fill="#000000" class="color000 svgShape"><path fill="#ffffff" d="M57.916,43.711l-5.658-2.355l-5.58,2.355C42.935,45.29,40.58,46.547,40.58,50v16.361
					c0,1.301,1.054,2.355,2.355,2.355h0.262c1.301,0,2.093-0.93,2.093-2.23v-8.243v8.243v3.533l0.393,4.71h13.345l0.393-4.71v-3.533
					V59.42v7.065c0,1.301,0.792,2.23,2.093,2.23h0.262c1.301,0,2.355-1.054,2.355-2.355V50
					C64.131,46.467,61.776,45.29,57.916,43.711z" class="colorfff svgShape"></path><path d="M60.112,75.906H44.599l-0.483-6.127c-0.287,0.075-0.595,0.115-0.918,0.115h-0.262c-1.948,0-3.533-1.584-3.533-3.533V50
					c0-4.499,3.622-6.026,6.818-7.373l6.033-2.547l6.112,2.543c3.414,1.396,6.942,2.842,6.942,7.377v16.361
					c0,1.948-1.584,3.533-3.533,3.533h-0.262c-0.323,0-0.629-0.039-0.915-0.114v0.238L60.112,75.906z M46.764,73.551h11.181
					l0.302-3.631l-0.004-3.424c0-0.004,0-0.007,0-0.01V59.42h2.355v7.065c0,0.699,0.308,1.053,0.915,1.053h0.262
					c0.649,0,1.178-0.528,1.178-1.178V50c0-2.688-1.587-3.605-5.483-5.199l-0.006-0.003l-5.203-2.165l-5.125,2.163
					C43.1,46.499,41.757,47.489,41.757,50v16.361c0,0.65,0.528,1.178,1.178,1.178h0.262c0.607,0,0.915-0.354,0.915-1.053v-8.243
					h2.355v11.775L46.764,73.551z" fill="#000000" class="color000 svgShape"></path><path fill="#ffffff" d="M47.645,37.636c0,2.927,2.109,5.299,4.71,5.299c2.602,0,4.71-2.372,4.71-5.299
					c0-2.927-2.109-5.299-4.71-5.299C49.754,32.337,47.645,34.709,47.645,37.636z" class="colorfff svgShape"></path><path d="M52.355,44.112c-3.246,0-5.888-2.906-5.888-6.476c0-3.571,2.642-6.477,5.888-6.477c3.246,0,5.888,2.906,5.888,6.477
					C58.243,41.207,55.601,44.112,52.355,44.112z M52.355,33.514c-1.948,0-3.533,1.849-3.533,4.122c0,2.272,1.585,4.121,3.533,4.121
					c1.948,0,3.533-1.849,3.533-4.121C55.888,35.363,54.303,33.514,52.355,33.514z" fill="#000000" class="color000 svgShape"></path><path fill="#ffffff" d="M52.355,74.729v-5.888V74.729z" class="colorfff svgShape"></path><rect width="2.355" height="8.243" x="51.178" y="67.663" fill="#000000" class="color000 svgShape"></rect><path fill="#ffffff" d="M59.42,59.739v-8.382V59.739z" class="colorfff svgShape"></path><rect width="2.355" height="10.736" x="58.243" y="50.18" fill="#000000" class="color000 svgShape"></rect><g fill="#000000" class="color000 svgShape"><path fill="#ffffff" d="M45.29,59.739v-8.382V59.739z" class="colorfff svgShape"></path><rect width="2.355" height="10.736" x="44.112" y="50.18" fill="#000000" class="color000 svgShape"></rect></g></g></svg>