<svg xmlns="http://www.w3.org/2000/svg" enable-background="new 0 0 100 100" viewBox="0 0 100 100" width="256" height="256"><path fill="#28b273" d="M27.626,13.496c-1.951,0-3.533,1.581-3.533,3.533v65.942c0,0.724,0.647-0.102,1.361-0.215
				l3.349-0.529V13.496H27.626z" class="color28b273 svgShape"></path><path d="M24.238,84.444c-0.207,0-0.426-0.048-0.649-0.179c-0.251-0.146-0.673-0.509-0.673-1.294V17.029
				c0-2.598,2.112-4.71,4.71-4.71h2.355v70.915l-4.342,0.686c-0.075,0.014-0.261,0.12-0.372,0.183
				C25.033,84.235,24.663,84.444,24.238,84.444z M27.626,14.674c-1.298,0-2.355,1.056-2.355,2.355v64.564c0,0,0,0,0.001,0
				l2.354-0.372V14.674z" fill="#000000" class="color000 svgShape"></path><polygon fill="#ffffff" points="28.804 13.496 28.804 82.228 46.467 79.438 75.906 79.438 75.906 13.496" class="colorfff svgShape"></polygon><path d="M27.626,83.605V12.319h49.457v68.297H46.559L27.626,83.605z M29.982,14.674v66.175l16.486-2.588h28.261V14.674H29.982z" fill="#000000" class="color000 svgShape"></path><path fill="#ffffff" d="M74.729,86.504H27.626c-1.951,0-3.533-1.582-3.533-3.533l0,0c0-1.951,1.582-3.533,3.533-3.533
			h47.102V86.504z" class="colorfff svgShape"></path><path d="M75.906,87.681h-48.28c-2.598,0-4.71-2.113-4.71-4.71s2.112-4.71,4.71-4.71h48.28V87.681z M27.626,80.616
			c-1.298,0-2.355,1.057-2.355,2.355c0,1.299,1.057,2.355,2.355,2.355h45.925v-4.71H27.626z" fill="#000000" class="color000 svgShape"></path><rect width="37.682" height="44.746" x="33.514" y="18.206" fill="#28b273" class="color28b273 svgShape"></rect><path d="M72.373,64.13H32.337V17.029h40.037V64.13z M34.692,61.775h35.327V19.384H34.692V61.775z" fill="#000000" class="color000 svgShape"></path><path fill="#ffffff" d="M64.131,34.692c0,6.504-5.272,11.775-11.776,11.775S40.58,41.195,40.58,34.692
				c0-6.503,5.272-11.775,11.775-11.775S64.131,28.188,64.131,34.692z" class="colorfff svgShape"></path><path d="M52.355,47.645c-7.142,0-12.953-5.811-12.953-12.953s5.811-12.953,12.953-12.953s12.953,5.81,12.953,12.953
				S59.497,47.645,52.355,47.645z M52.355,24.094c-5.844,0-10.598,4.754-10.598,10.597c0,5.844,4.754,10.598,10.598,10.598
				c5.844,0,10.598-4.754,10.598-10.598C62.953,28.848,58.199,24.094,52.355,24.094z" fill="#000000" class="color000 svgShape"></path><path d="M52.944,40.579h-4.71v-2.355h4.71c0.65,0,1.178-0.528,1.178-1.178c0-0.649-0.528-1.178-1.178-1.178h-1.178
								c-1.948,0-3.533-1.584-3.533-3.533c0-1.948,1.584-3.533,3.533-3.533h4.71v2.355h-4.71c-0.65,0-1.178,0.529-1.178,1.178
								c0,0.65,0.527,1.178,1.178,1.178h1.178c1.948,0,3.533,1.585,3.533,3.533C56.477,38.995,54.892,40.579,52.944,40.579z" fill="#000000" class="color000 svgShape"></path><rect width="2.355" height="3.533" x="51.178" y="27.626" fill="#000000" class="color000 svgShape"></rect><rect width="2.355" height="3.533" x="51.178" y="38.224" fill="#000000" class="color000 svgShape"></rect><rect width="27.084" height="2.355" x="39.402" y="66.485" fill="#000000" class="color000 svgShape"></rect><rect width="15.308" height="2.355" x="45.29" y="71.196" fill="#000000" class="color000 svgShape"></rect><path d="M51.178 57.065V54.71h2.355v2.355C51.178 57.065 53.533 57.065 51.178 57.065zM51.178 52.355V50h2.355v2.355C51.178 52.355 53.533 52.355 51.178 52.355zM45.29 55.888v-2.355h2.355v2.355C45.29 55.888 47.645 55.888 45.29 55.888zM45.29 51.177v-2.355h2.355v2.355C45.29 51.177 47.645 51.177 45.29 51.177zM57.065 55.888v-2.355h2.355v2.355C57.065 55.888 59.42 55.888 57.065 55.888zM57.065 51.177v-2.355h2.355v2.355C57.065 51.177 59.42 51.177 57.065 51.177zM62.953 52.355V50h2.355v2.355C62.953 52.355 65.308 52.355 62.953 52.355zM62.953 47.645V45.29h2.355v2.355C62.953 47.645 65.308 47.645 62.953 47.645zM39.402 52.355V50h2.355v2.355C39.402 52.355 41.757 52.355 39.402 52.355zM39.402 47.645V45.29h2.355v2.355C39.402 47.645 41.757 47.645 39.402 47.645z" fill="#000000" class="color000 svgShape"></path></svg>