<svg xmlns="http://www.w3.org/2000/svg" enable-background="new 0 0 100 100" viewBox="0 0 100 100" width="256" height="256"><path fill="#ffffff" d="M28.804,13.496h-1.178c-1.951,0-3.533,1.581-3.533,3.533v65.942c0,0.724,0.646-0.102,1.361-0.215
				l3.349-0.529l17.663-2.789h29.439V13.496H28.804z" class="colorfff svgShape"></path><path d="M24.237,84.444c-0.206,0-0.425-0.048-0.648-0.179c-0.251-0.146-0.673-0.508-0.673-1.294V17.029
				c0-2.598,2.113-4.71,4.71-4.71h49.457v68.297H46.56l-20.921,3.303c-0.075,0.015-0.261,0.121-0.372,0.184
				C25.033,84.235,24.663,84.444,24.237,84.444z M27.627,14.674c-1.299,0-2.355,1.056-2.355,2.355v64.564l21.195-3.332h28.261
				V14.674H27.627z" fill="#000000" class="color000 svgShape"></path><path fill="#73e5ff" d="M74.728,86.504H27.627c-1.951,0-3.533-1.582-3.533-3.533l0,0c0-1.951,1.581-3.533,3.533-3.533
				h47.102V86.504z" class="color73e5ff svgShape"></path><path d="M75.906,87.681H27.627c-2.597,0-4.71-2.112-4.71-4.71c0-2.598,2.113-4.71,4.71-4.71h48.279V87.681z M27.627,80.616
				c-1.299,0-2.355,1.057-2.355,2.355c0,1.299,1.056,2.355,2.355,2.355h45.924v-4.71H27.627z" fill="#000000" class="color000 svgShape"></path><rect width="37.681" height="14.131" x="33.515" y="59.42" fill="#73e5ff" class="color73e5ff svgShape"></rect><path d="M72.373,74.728H32.337V58.243h40.036V74.728z M34.692,72.373h35.326V60.598H34.692V72.373z" fill="#000000" class="color000 svgShape"></path><rect width="23.55" height="2.355" x="40.58" y="62.953" fill="#000000" class="color000 svgShape"></rect><rect width="16.486" height="2.355" x="44.112" y="67.663" fill="#000000" class="color000 svgShape"></rect><g fill="#000000" class="color000 svgShape"><rect width="2.355" height="58.877" x="27.627" y="17.029" fill="#000000" class="color000 svgShape"></rect></g><g fill="#000000" class="color000 svgShape"><path fill="#73e5ff" d="M44.112,39.402L44.112,39.402c-4.553,0-8.243-3.69-8.243-8.243V20.562h16.485v10.597
					C52.355,35.712,48.665,39.402,44.112,39.402z" class="color73e5ff svgShape"></path><path d="M44.112,40.579c-5.194,0-9.42-4.226-9.42-9.42V19.384h18.84v11.775C53.532,36.354,49.307,40.579,44.112,40.579z
					 M37.047,21.739v9.42c0,3.896,3.169,7.065,7.065,7.065c3.896,0,7.065-3.169,7.065-7.065v-9.42H37.047z" fill="#000000" class="color000 svgShape"></path><path d="M38.919 26.449l1.661-1.673 1.66 1.673-1.66 1.66C38.919 26.449 40.58 28.11 38.919 26.449zM45.984 26.449l1.66-1.673 1.66 1.673-1.66 1.66C45.984 26.449 47.645 28.11 45.984 26.449zM46.539 35.178l-.867-.796c-1.123-1.03-1.996-1.03-3.119 0l-.867.796-1.592-1.736.868-.796c2.032-1.863 4.27-1.863 6.301 0l.868.796L46.539 35.178z" fill="#000000" class="color000 svgShape"></path><path fill="#73e5ff" d="M59.42,50L59.42,50c-4.552,0-8.243-3.69-8.243-8.243V31.159h16.486v10.598
					C67.663,46.309,63.973,50,59.42,50z" class="color73e5ff svgShape"></path><path d="M59.42,51.177c-5.194,0-9.42-4.226-9.42-9.42V29.982H68.84v11.775C68.84,46.952,64.615,51.177,59.42,51.177z
					 M52.355,32.336v9.42c0,3.896,3.17,7.065,7.065,7.065c3.896,0,7.065-3.169,7.065-7.065v-9.42H52.355z" fill="#000000" class="color000 svgShape"></path><path d="M54.215 37.047l1.672-1.672 1.661 1.672-1.661 1.661C54.215 37.047 55.888 38.708 54.215 37.047zM61.281 37.047l1.672-1.672 1.661 1.672-1.661 1.661C61.281 37.047 62.953 38.708 61.281 37.047zM59.42 45.298c-1.067 0-2.135-.466-3.15-1.397l-.868-.797 1.593-1.735.867.796c1.122 1.03 1.996 1.03 3.119 0l.867-.796 1.593 1.735-.868.797C61.556 44.832 60.488 45.298 59.42 45.298z" fill="#000000" class="color000 svgShape"></path></g><g fill="#000000" class="color000 svgShape"><path d="M45.29,55.888v-2.355h2.355v2.355C45.29,55.888,47.645,55.888,45.29,55.888z M40.58,55.888v-2.355h2.355v2.355
			C40.58,55.888,42.935,55.888,40.58,55.888z M35.87,55.888v-2.355h2.355v2.355C35.87,55.888,38.225,55.888,35.87,55.888z" fill="#000000" class="color000 svgShape"></path></g></svg>