<svg xmlns="http://www.w3.org/2000/svg" enable-background="new 0 0 100 100" viewBox="0 0 100 100"
	width="256" height="256">
	<path fill="#ffffff"
		d="M26.449,13.496c-1.951,0-3.533,1.582-3.533,3.533v61.233c0,0.723,0.646-0.102,1.361-0.215
						l3.349-0.529l17.663-2.789h31.794V13.496H26.449z"
		class="colorfff svgShape"></path>
	<path
		d="M23.059,79.734c-0.206,0-0.425-0.048-0.648-0.179c-0.251-0.146-0.673-0.508-0.673-1.294V17.029
						c0-2.598,2.113-4.71,4.71-4.71h51.812v63.588H45.382l-20.921,3.303c-0.075,0.015-0.26,0.12-0.372,0.184
						C23.855,79.525,23.486,79.734,23.059,79.734z M26.449,14.674c-1.299,0-2.355,1.057-2.355,2.355v59.855l21.196-3.332h30.616
						V14.674H26.449z"
		fill="#000000" class="color000 svgShape"></path>
	<path fill="#7c8aed"
		d="M77.084,86.504h-48.28c-3.252,0-5.888-2.636-5.888-5.888l0,0c0-3.252,2.636-5.888,5.888-5.888
						h48.28V86.504z"
		class="color7c8aed svgShape"></path>
	<path
		d="M78.261,87.682H26.449c-2.597,0-4.71-2.113-4.71-4.71v-4.71c0-2.598,2.113-4.71,4.71-4.71h51.812V87.682z
						 M26.449,75.906c-1.299,0-2.355,1.057-2.355,2.355v4.71c0,1.298,1.056,2.355,2.355,2.355h49.457v-9.42H26.449z"
		fill="#000000" class="color000 svgShape"></path>
	<rect width="50.635" height="2.355" x="27.627" y="79.439" fill="#000000"
		class="color000 svgShape"></rect>
	<rect width="2.355" height="54.167" x="26.449" y="17.029" fill="#000000"
		class="color000 svgShape"></rect>
	<path fill="#7c8aed"
		d="M55.299,61.776H33.514v8.243h21.784c2.277,0,4.122-1.845,4.122-4.122l0,0
			C59.42,63.621,57.575,61.776,55.299,61.776z"
		class="color7c8aed svgShape"></path>
	<path
		d="M55.299,71.196H32.337V60.598h22.962c2.922,0,5.299,2.377,5.299,5.299C60.598,68.819,58.221,71.196,55.299,71.196z
			 M34.692,68.841h20.607c1.623,0,2.944-1.32,2.944-2.944c0-1.624-1.321-2.944-2.944-2.944H34.692V68.841z"
		fill="#000000" class="color000 svgShape"></path>
	<path fill="#7c8aed"
		d="M33.906,38.784c0.943,0.943,2.817,0.792,6.627-1.7l-4.927-4.926
					C33.113,35.967,32.963,37.841,33.906,38.784z"
		class="color7c8aed svgShape"></path>
	<path
		d="M35.315,40.507c-0.84,0-1.609-0.257-2.242-0.891l0,0c0,0,0,0,0,0c-2.011-2.011-0.229-5.387,1.548-8.104l0.794-1.212
					l6.976,6.976l-1.213,0.794C39.316,39.287,37.145,40.507,35.315,40.507z M35.825,34.042c-1.333,2.309-1.466,3.529-1.086,3.908
					h0.001c0.38,0.381,1.599,0.249,3.908-1.086L35.825,34.042z"
		fill="#000000" class="color000 svgShape"></path>
	<path fill="#7c8aed"
		d="M51.391,28.792c2.53-2.529,5.4-7.09,3.331-9.159c-2.069-2.07-8.295-0.864-10.825,1.665
					c-0.98,0.979-3.259,3.763-5.564,6.926l6.132,6.132C47.628,32.051,50.412,29.771,51.391,28.792z"
		class="color7c8aed svgShape"></path>
	<path
		d="M44.346,35.902l-7.557-7.557l0.593-0.814c2.156-2.957,4.546-5.928,5.683-7.064c2.924-2.924,9.875-4.281,12.49-1.667
					c2.965,2.964-0.882,8.378-3.33,10.825l0,0l0,0c-0.977,0.976-3.717,3.243-7.064,5.683L44.346,35.902z M39.882,28.106l4.701,4.702
					c2.849-2.116,5.162-4.035,5.976-4.849l0,0c2.56-2.56,4.557-6.267,3.33-7.494c-1.504-1.503-6.984-0.507-9.159,1.666
					C43.917,22.944,41.999,25.256,39.882,28.106z"
		fill="#000000" class="color000 svgShape"></path>
	<g fill="#000000" class="color000 svgShape">
		<path fill="#7c8aed"
			d="M41.4,52.939c-0.943-0.943-0.793-2.817,1.7-6.626l4.927,4.926
					C44.216,53.731,42.343,53.882,41.4,52.939z"
			class="color7c8aed svgShape"></path>
		<path
			d="M42.809,54.662c-0.84,0-1.608-0.256-2.241-0.89h0c-2.011-2.013-0.229-5.389,1.547-8.105l0.794-1.212l6.976,6.976
					l-1.213,0.794C46.81,53.442,44.638,54.662,42.809,54.662z M42.232,52.106c0.38,0.378,1.601,0.246,3.909-1.088l-2.823-2.821
					C41.985,50.505,41.852,51.726,42.232,52.106z"
			fill="#000000" class="color000 svgShape"></path>
		<path fill="#7c8aed"
			d="M51.391,35.453c2.53-2.529,7.09-5.4,9.159-3.33c2.07,2.069,0.864,8.295-1.665,10.824
					c-0.979,0.979-3.764,3.259-6.926,5.564l-6.132-6.132C48.133,39.217,50.412,36.433,51.391,35.453z"
			class="color7c8aed svgShape"></path>
		<path
			d="M51.84,50.056L44.283,42.5l0.593-0.815c2.44-3.347,4.706-6.087,5.683-7.065l0,0c1.515-1.514,3.421-2.871,5.1-3.63
					c3.089-1.396,4.818-0.606,5.724,0.3c1.237,1.237,1.683,3.522,1.22,6.267c-0.423,2.512-1.502,4.838-2.886,6.223
					c-0.977,0.977-3.717,3.243-7.064,5.682L51.84,50.056z M47.376,42.262l4.701,4.701c2.848-2.116,5.161-4.034,5.976-4.848
					c1.019-1.02,1.894-2.962,2.229-4.948c0.319-1.896,0.097-3.55-0.564-4.211c-0.728-0.729-2.248-0.199-3.089,0.18
					c-1.433,0.649-3.08,1.826-4.404,3.15C51.41,37.1,49.491,39.412,47.376,42.262z"
			fill="#000000" class="color000 svgShape"></path>
	</g>
	<g fill="#000000" class="color000 svgShape">
		<path fill="#ffffff"
			d="M60.182,38.028c3.679,3.679,3.679,9.644,0,13.323c-3.679,3.678-9.644,3.678-13.323,0
				c-3.679-3.679-3.679-9.644,0-13.323C50.538,34.349,56.503,34.349,60.182,38.028z"
			class="colorfff svgShape"></path>
		<path
			d="M53.521,55.282c-2.714,0-5.428-1.032-7.494-3.099c-4.132-4.132-4.132-10.855,0-14.987c4.132-4.132,10.856-4.133,14.988,0
				c4.132,4.132,4.132,10.855,0,14.987C58.948,54.249,56.234,55.282,53.521,55.282z M53.521,36.45c-2.111,0-4.222,0.804-5.829,2.41
				c-3.213,3.214-3.213,8.443,0,11.657c3.214,3.213,8.444,3.213,11.658,0c3.214-3.214,3.214-8.443,0-11.657
				C57.742,37.254,55.631,36.45,53.521,36.45z"
			fill="#000000" class="color000 svgShape"></path>
		<rect width="2.355" height="7.065" x="60.669" y="49.483"
			transform="rotate(-45.009 61.843 53.015)" fill="#000000" class="color000 svgShape"></rect>
		<path fill="#7c8aed"
			d="M70.804,61.972L70.804,61.972c-0.92,0.92-2.411,0.92-3.33,0l-5.627-5.626l3.33-3.331l5.627,5.627
				C71.723,59.562,71.723,61.053,70.804,61.972z"
			class="color7c8aed svgShape"></path>
		<path
			d="M69.139,63.837c-0.905,0-1.81-0.344-2.498-1.033l-6.459-6.459l4.996-4.995l6.459,6.459
				c1.377,1.378,1.377,3.617,0.001,4.995h-0.001C70.948,63.494,70.044,63.837,69.139,63.837z M70.804,61.972h0.012H70.804z
				 M63.512,56.345l4.794,4.794c0.458,0.459,1.205,0.46,1.666,0c0.459-0.459,0.458-1.207-0.001-1.665l-4.794-4.794L63.512,56.345z"
			fill="#000000" class="color000 svgShape"></path>
	</g>
	<g fill="#000000" class="color000 svgShape">
		<rect width="11.776" height="2.355" x="61.776" y="17.029" fill="#000000"
			class="color000 svgShape"></rect>
	</g>
</svg>