<svg xmlns="http://www.w3.org/2000/svg" enable-background="new 0 0 100 100" viewBox="0 0 100 100" width="256" height="256"><rect width="3.533" height="2.355" x="73.551" y="85.326" fill="#000000" class="color000 svgShape"></rect><path fill="#ffffff" d="M27.627,13.496c-1.951,0-3.533,1.581-3.533,3.533v65.942c0,0.724,0.646-0.102,1.361-0.215
					l3.349-0.529V13.496H27.627z" class="colorfff svgShape"></path><path d="M24.237,84.444c-0.206,0-0.425-0.048-0.648-0.179c-0.251-0.146-0.673-0.509-0.673-1.294V17.029
					c0-2.598,2.113-4.71,4.71-4.71h2.355v70.915l-4.343,0.686c-0.075,0.014-0.261,0.12-0.372,0.183
					C25.033,84.235,24.663,84.444,24.237,84.444z M27.627,14.674c-1.299,0-2.355,1.056-2.355,2.355v64.564l2.355-0.372V14.674z" fill="#000000" class="color000 svgShape"></path><polygon fill="#73e5ff" points="28.804 13.496 28.804 82.228 46.467 79.438 75.906 79.438 75.906 13.496" class="color73e5ff svgShape"></polygon><path d="M27.627,83.605V12.319h49.457v68.297H46.56L27.627,83.605z M29.982,14.674v66.175l16.485-2.588h28.261V14.674H29.982z" fill="#000000" class="color000 svgShape"></path><path fill="#ffffff" d="M74.728,86.504H27.626c-1.951,0-3.532-1.582-3.532-3.533l0,0c0-1.951,1.581-3.533,3.533-3.533
				h47.102V86.504z" class="colorfff svgShape"></path><path d="M75.906,87.681H27.627c-2.597,0-4.71-2.113-4.71-4.71s2.113-4.71,4.71-4.71h48.279V87.681z M27.627,80.616
				c-1.299,0-2.355,1.057-2.355,2.355c0,1.299,1.056,2.355,2.355,2.355h45.924v-4.71H27.627z" fill="#000000" class="color000 svgShape"></path><rect width="37.681" height="56.522" x="33.515" y="18.206" fill="#ffffff" class="colorfff svgShape"></rect><path d="M72.373,75.906H32.337V17.029h40.036V75.906z M34.692,73.551h35.326V19.384H34.692V73.551z" fill="#000000" class="color000 svgShape"></path><rect width="16.486" height="2.355" x="50" y="21.739" fill="#000000" class="color000 svgShape"></rect><rect width="10.598" height="2.355" x="50" y="26.449" fill="#000000" class="color000 svgShape"></rect><path fill="#73e5ff" d="M48.513,62.482l-3.991-2.502l-3.753,5.986c-0.691,1.102-0.358,2.556,0.745,3.247l0,0
									c1.102,0.691,2.555,0.357,3.246-0.745L48.513,62.482z" class="color73e5ff svgShape"></path><path d="M43.132,71.196c-0.437,0-0.867-0.122-1.246-0.36l-1.996-1.251c-0.532-0.333-0.904-0.855-1.044-1.468
									c-0.141-0.613-0.034-1.244,0.3-1.778l5.003-7.982l5.986,3.753l-5.003,7.981c-0.334,0.533-0.856,0.904-1.469,1.044
									C43.487,71.177,43.309,71.196,43.132,71.196z M44.894,61.604l-3.752,5.986l1.995,1.251l3.753-5.986L44.894,61.604z" fill="#000000" class="color000 svgShape"></path><path fill="#73e5ff" d="M44.522,59.98l3.991,2.502c2.204,1.382,5.111,0.715,6.493-1.489l0,0l-11.972-7.505l0,0
									C41.651,55.692,42.318,58.598,44.522,59.98z" class="color73e5ff svgShape"></path><path d="M51.753,65.271c-0.657,0-1.301-0.184-1.87-0.541l-7.982-5.004c-0.799-0.5-1.356-1.283-1.567-2.203
									c-0.211-0.919-0.051-1.866,0.451-2.666l1.875-2.993l13.969,8.756l-1.877,2.993c-0.502,0.8-1.285,1.356-2.204,1.567
									C52.284,65.241,52.017,65.271,51.753,65.271z M43.405,55.111l-0.626,0.998c-0.167,0.267-0.22,0.582-0.15,0.889
									c0.07,0.306,0.256,0.567,0.522,0.734l0,0.001l7.982,5.003c0.265,0.166,0.58,0.22,0.888,0.15
									c0.307-0.07,0.568-0.256,0.735-0.523l0.626-0.998L43.405,55.111z" fill="#000000" class="color000 svgShape"></path><polygon fill="#ffffff" points="57.942 35.062 65.06 32.576 65.924 40.066 53.01 59.742 45.028 54.738" class="colorfff svgShape"></polygon><path d="M53.361,61.352l-9.978-6.255l13.793-21.014l8.886-3.105l1.081,9.377L53.361,61.352z M46.673,54.379l5.985,3.752
					l12.048-18.354l-0.646-5.604l-5.351,1.87L46.673,54.379z" fill="#000000" class="color000 svgShape"></path><g fill="#000000" class="color000 svgShape"><rect width="23.536" height="2.355" x="43.083" y="47.222" transform="rotate(-56.598 54.851 48.4)" fill="#000000" class="color000 svgShape"></rect></g><g fill="#000000" class="color000 svgShape"><path fill="#73e5ff" d="M41.757,32.336L41.757,32.336L41.757,32.336c-2.207-1.471-3.533-3.948-3.533-6.601v-2.819h7.065
				v2.819C45.29,28.389,43.964,30.865,41.757,32.336z" class="color73e5ff svgShape"></path><path d="M41.757,33.752l-0.653-0.435c-2.54-1.694-4.057-4.528-4.057-7.581v-3.997h9.42v3.997c0,3.053-1.516,5.887-4.057,7.581
				L41.757,33.752z M39.402,24.094v1.642c0,1.988,0.867,3.851,2.355,5.126c1.487-1.275,2.355-3.138,2.355-5.126v-1.642H39.402z" fill="#000000" class="color000 svgShape"></path></g><g fill="#000000" class="color000 svgShape"><rect width="8.243" height="2.355" x="59.42" y="68.84" fill="#000000" class="color000 svgShape"></rect></g></svg>