<svg xmlns="http://www.w3.org/2000/svg" enable-background="new 0 0 100 100" viewBox="0 0 100 100" width="256" height="256"><rect width="3.533" height="2.355" x="75.906" y="85.326" fill="#000000" class="color000 svgShape"></rect><path fill="#ffd44d" d="M26.449,13.496h-1.177c-1.951,0-3.533,1.581-3.533,3.533v65.942c0,0.724,7.065-3.533,7.065-3.533
					h49.457V13.496H26.449z" class="colorffd44d svgShape"></path><path d="M21.795,84.244c-0.278,0-0.436-0.089-0.599-0.182l-0.598-0.338l-0.037-0.753V17.029c0-2.598,2.113-4.71,4.71-4.71
					h54.167v68.297H29.131C24.167,83.594,22.544,84.244,21.795,84.244z M25.271,14.674c-1.299,0-2.355,1.056-2.355,2.355v64.36
					c1.327-0.659,3.457-1.861,5.281-2.959l0.279-0.169h48.607V14.674H25.271z" fill="#000000" class="color000 svgShape"></path><path fill="#ffffff" d="M77.084,86.504H25.271c-1.951,0-3.533-1.582-3.533-3.533l0,0c0-1.951,1.582-3.533,3.533-3.533
					h51.812V86.504z" class="colorfff svgShape"></path><path d="M78.261,87.681h-52.99c-2.598,0-4.71-2.113-4.71-4.71s2.113-4.71,4.71-4.71h52.99V87.681z M25.271,80.616
					c-1.299,0-2.355,1.057-2.355,2.355c0,1.299,1.057,2.355,2.355,2.355h50.635v-4.71H25.271z" fill="#000000" class="color000 svgShape"></path><rect width="32.971" height="4.71" x="35.869" y="58.243" fill="#ffffff" class="colorfff svgShape"></rect><path d="M70.018,64.13H34.692v-7.065h35.327V64.13z M37.047,61.775h30.616V59.42H37.047V61.775z" fill="#000000" class="color000 svgShape"></path><rect width="25.906" height="2.355" x="39.402" y="66.485" fill="#000000" class="color000 svgShape"></rect><rect width="16.486" height="2.355" x="44.112" y="71.196" fill="#000000" class="color000 svgShape"></rect><rect width="7.065" height="2.355" x="67.663" y="73.551" fill="#000000" class="color000 svgShape"></rect><rect width="2.355" height="58.877" x="25.271" y="17.029" fill="#000000" class="color000 svgShape"></rect><path fill="#ffd44d" d="M60.598,32.336c0-6.503-5.272-11.775-11.776-11.775c-6.504,0-11.776,5.272-11.776,11.775
				c0,0,0,9.42-2.355,11.776c4.71,0,9.606-3.827,9.606-8.39L60.598,32.336z" class="colorffd44d svgShape"></path><path d="M34.692,45.29h-2.843l2.01-2.01c1.463-1.462,2.009-7.489,2.01-10.943c0-7.142,5.811-12.952,12.953-12.952
				s12.953,5.81,12.953,12.952v0.958l-16.36,3.398C44.793,41.674,39.477,45.29,34.692,45.29z M48.822,21.739
				c-5.844,0-10.598,4.754-10.598,10.597c0,1.304-0.08,6.79-1.374,10.314c3.442-0.907,6.269-3.847,6.269-6.928v-0.958l16.258-3.377
				C58.896,25.987,54.347,21.739,48.822,21.739z M60.598,32.336h0.012H60.598z" fill="#000000" class="color000 svgShape"></path><path fill="#ffffff" d="M46.467,51.177v-1.453c0-1.094-0.229-2.195-0.789-3.135c0,0-2.558-2.478-2.558-9.085
				c0-7.523,4.889-10.903,8.687-10.903c7.613,0,9.651,2.738,11.394,6.386c0.377,0.788-0.188,1.703-1.061,1.703h-5.075
				c-1.301,0-2.355,1.055-2.355,2.355v2.355h9.111c-1.047,4.061-0.013,7.065-4.401,7.065v4.71H46.467z" class="colorfff svgShape"></path><path d="M60.598,52.355h-2.355V45.29h1.178c2.272,0,2.368-0.688,2.725-3.246c0.063-0.457,0.131-0.946,0.222-1.464h-8.835v-3.533
				c0-1.948,1.584-3.533,3.533-3.533h5.075c-1.601-3.365-3.279-5.734-10.332-5.734c-2.904,0-7.511,2.64-7.511,9.724
				c0,5.942,2.178,8.218,2.2,8.239l0.193,0.243c0.625,1.048,0.955,2.341,0.955,3.738v2.631H45.29v-2.631
				c0-0.927-0.196-1.765-0.566-2.433c-0.582-0.657-2.782-3.556-2.782-9.786c0-7.846,5.083-12.08,9.866-12.08
				c8.389,0,10.679,3.337,12.456,7.055c0.354,0.739,0.305,1.596-0.132,2.29c-0.433,0.688-1.178,1.099-1.991,1.099h-5.075
				c-0.65,0-1.178,0.529-1.178,1.178v1.178h9.455l-0.38,1.472c-0.244,0.944-0.367,1.823-0.485,2.672
				c-0.326,2.335-0.662,4.742-3.88,5.199V52.355z" fill="#000000" class="color000 svgShape"></path><path fill="#ffffff" d="M59.42,48.822h-4.71l-0.942-0.706C51.396,46.337,50,43.545,50,40.579v-3.533
				c0-1.3,1.054-2.355,2.355-2.355l0,0c1.301,0,2.355,1.055,2.355,2.355v2.355h10.598l-1.306,4.572
				C63.364,46.207,61.719,48.494,59.42,48.822z" class="colorfff svgShape"></path><path d="M59.504,50h-5.186l-1.257-0.942c-2.654-1.99-4.239-5.16-4.239-8.478v-3.533c0-1.948,1.585-3.533,3.533-3.533
				c1.948,0,3.533,1.585,3.533,3.533v1.178H66.87l-1.735,6.073c-0.674,2.356-2.531,5.26-5.547,5.69L59.504,50z M55.102,47.645h4.227
				c1.741-0.297,3.03-2.209,3.539-3.995l0.877-3.071H53.533v-3.533c0-0.649-0.528-1.178-1.178-1.178
				c-0.65,0-1.178,0.529-1.178,1.178v3.533c0,2.581,1.233,5.046,3.297,6.595L55.102,47.645z" fill="#000000" class="color000 svgShape"></path><polygon points="65.308 39.402 62.953 39.402 62.953 35.869 60.598 35.869 60.598 33.514 65.308 33.514" fill="#000000" class="color000 svgShape"></polygon><rect width="2.355" height="5.888" x="53.533" y="38.224" fill="#000000" class="color000 svgShape"></rect></svg>