<svg width="24" height="24" viewBox="0 0 24 24" fill="none" xmlns="http://www.w3.org/2000/svg">
    <path
        d="M21.2704 9.17981C20.9804 8.71981 20.6704 8.28981 20.3504 7.88981C19.9804 7.41981 19.2804 7.37981 18.8604 7.79981L15.8604 10.7998C16.0804 11.4598 16.1204 12.2198 15.9204 13.0098C15.5704 14.4198 14.4304 15.5598 13.0204 15.9098C12.2304 16.1098 11.4704 16.0698 10.8104 15.8498C10.8104 15.8498 9.38044 17.2798 8.35044 18.3098C7.85044 18.8098 8.01044 19.6898 8.68044 19.9498C9.75044 20.3598 10.8604 20.5698 12.0004 20.5698C13.7804 20.5698 15.5104 20.0498 17.0904 19.0798C18.7004 18.0798 20.1504 16.6098 21.3204 14.7398C22.2704 13.2298 22.2204 10.6898 21.2704 9.17981Z"
        fill="#292D32" />
    <path
        d="M14.0196 9.98014L9.97965 14.0201C9.46965 13.5001 9.13965 12.7801 9.13965 12.0001C9.13965 10.4301 10.4196 9.14014 11.9996 9.14014C12.7796 9.14014 13.4996 9.47014 14.0196 9.98014Z"
        fill="#292D32" />
    <path
        d="M18.25 5.75018L14.86 9.14018C14.13 8.40018 13.12 7.96018 12 7.96018C9.76 7.96018 7.96 9.77018 7.96 12.0002C7.96 13.1202 8.41 14.1302 9.14 14.8602L5.76 18.2502H5.75C4.64 17.3502 3.62 16.2002 2.75 14.8402C1.75 13.2702 1.75 10.7202 2.75 9.15018C3.91 7.33017 5.33 5.90018 6.91 4.92018C8.49 3.96018 10.22 3.43018 12 3.43018C14.23 3.43018 16.39 4.25018 18.25 5.75018Z"
        fill="#292D32" />
    <path
        d="M14.8601 12.0001C14.8601 13.5701 13.5801 14.8601 12.0001 14.8601C11.9401 14.8601 11.8901 14.8601 11.8301 14.8401L14.8401 11.8301C14.8601 11.8901 14.8601 11.9401 14.8601 12.0001Z"
        fill="#292D32" />
    <path
        d="M21.7699 2.22988C21.4699 1.92988 20.9799 1.92988 20.6799 2.22988L2.22988 20.6899C1.92988 20.9899 1.92988 21.4799 2.22988 21.7799C2.37988 21.9199 2.56988 21.9999 2.76988 21.9999C2.96988 21.9999 3.15988 21.9199 3.30988 21.7699L21.7699 3.30988C22.0799 3.00988 22.0799 2.52988 21.7699 2.22988Z"
        fill="#292D32" />
</svg>