<svg xmlns="http://www.w3.org/2000/svg" version="1.1" xmlns:xlink="http://www.w3.org/1999/xlink" xmlns:svgjs="http://svgjs.com/svgjs" width="512" height="512" x="0" y="0" viewBox="0 0 512 512" style="enable-background:new 0 0 512 512" xml:space="preserve" class=""><g><path d="M430.474 71.849H49.57C22.237 71.849 0 94.086 0 121.42v6.724c0 27.333 22.237 49.57 49.57 49.57h380.906a7.519 7.519 0 0 0 7.52-7.52V79.369a7.52 7.52 0 0 0-7.522-7.52z" style="" fill="#7c3d1e" data-original="#7c3d1e"></path><path d="M2.053 107.327A49.361 49.361 0 0 0 0 121.42v6.724c0 27.333 22.237 49.57 49.57 49.57h380.906a7.519 7.519 0 0 0 7.52-7.52v-27.417H49.57c-22.47-.001-41.436-14.955-47.517-35.45z" style="" fill="#68321a" data-original="#68321a"></path><path d="m239.688 48.724-28.569-28.568a7.523 7.523 0 0 0-10.636 0L55.765 164.874a7.519 7.519 0 0 0-1.629 8.196 7.52 7.52 0 0 0 6.948 4.643h57.137a7.524 7.524 0 0 0 5.318-2.202l116.15-116.15a7.522 7.522 0 0 0-.001-10.637z" style="" fill="#78aa17" data-original="#78aa17"></path><path d="m77.521 143.119-21.755 21.755a7.519 7.519 0 0 0-1.629 8.196 7.52 7.52 0 0 0 6.948 4.643h57.137a7.524 7.524 0 0 0 5.318-2.202l32.391-32.391h-78.41z" style="" fill="#6d8915" data-original="#6d8915"></path><path d="M412.974 164.874 268.257 20.156a7.524 7.524 0 0 0-10.637 0L112.903 164.874a7.519 7.519 0 0 0-1.629 8.196 7.52 7.52 0 0 0 6.948 4.643h289.436a7.52 7.52 0 0 0 5.316-12.839z" style="" fill="#8acc19" data-original="#8acc19"></path><path d="M112.903 164.874a7.519 7.519 0 0 0-1.629 8.196 7.52 7.52 0 0 0 6.948 4.643h289.436a7.52 7.52 0 0 0 5.319-12.839l-21.755-21.755H134.658l-21.755 21.755z" style="" fill="#78a017" data-original="#78a017"></path><path d="m370.212 164.874-80.347-80.348a7.524 7.524 0 0 0-10.636 0 22.723 22.723 0 0 1-16.177 6.702 22.724 22.724 0 0 1-16.177-6.701 7.522 7.522 0 0 0-10.636-.001l-80.348 80.348a7.519 7.519 0 0 0-1.629 8.196 7.52 7.52 0 0 0 6.948 4.643h203.685a7.52 7.52 0 0 0 5.317-12.839z" style="" fill="#78a017" data-original="#78a017"></path><path d="M155.892 164.874a7.519 7.519 0 0 0-1.629 8.196 7.52 7.52 0 0 0 6.948 4.643h203.685a7.522 7.522 0 0 0 5.319-12.839l-21.755-21.755H177.646l-21.754 21.755z" style="" fill="#6d8915" data-original="#6d8915"></path><path d="M477.204 162.672H40.668c-21.596 0-39.26-16.799-40.66-38.041-.001.05-.008.1-.008.153V441.115c0 29.187 23.745 52.932 52.932 52.932h424.273a7.519 7.519 0 0 0 7.52-7.52V170.192a7.52 7.52 0 0 0-7.521-7.52z" style="" fill="#aa5d24" data-original="#aa5d24" class=""></path><path d="M484.725 291.845H403.78c-30.233 0-54.831 24.596-54.831 54.831 0 30.233 24.596 54.831 54.831 54.831h80.945V291.845z" style="" fill="#7c3d1e" data-original="#7c3d1e"></path><path d="M489.439 272.531h-85.66c-30.233 0-54.831 24.596-54.831 54.831 0 30.233 24.596 54.831 54.831 54.831h85.66c12.44 0 22.561-10.121 22.561-22.561v-64.539c0-12.442-10.121-22.562-22.561-22.562z" style="" fill="#f99608" data-original="#f99608"></path><path d="M410.147 302.828c-13.526 0-24.531 11.006-24.531 24.532s11.005 24.531 24.531 24.531c13.526 0 24.532-11.005 24.532-24.531s-11.006-24.532-24.532-24.532z" style="" fill="#ffd039" data-original="#ffd039"></path></g></svg>