<svg width="16" height="16" viewBox="0 0 16 16" fill="none" xmlns="http://www.w3.org/2000/svg">
    <mask id="mask0_6009_5331" style="mask-type:luminance" maskUnits="userSpaceOnUse" x="2" y="1"
        width="12" height="14">
        <path fill-rule="evenodd" clip-rule="evenodd"
            d="M2.0002 1.3418H13.3687V14.5775H2.0002V1.3418Z" fill="white" />
    </mask>
    <g mask="url(#mask0_6009_5331)">
        <path fill-rule="evenodd" clip-rule="evenodd"
            d="M5.04893 2.3418C3.94427 2.3418 3.02693 3.23646 3.00093 4.3398V11.4698C2.97627 12.6118 3.87627 13.5525 5.00693 13.5778H10.3829C11.4956 13.5318 12.3769 12.6071 12.3689 11.4738V5.56046L9.27893 2.3418H5.05693H5.04893ZM5.05693 14.5778H4.98427C3.30293 14.5398 1.96427 13.1411 2.00093 11.4591V4.3278C2.0396 2.6738 3.4056 1.3418 5.0476 1.3418H5.05893H9.49227C9.62827 1.3418 9.75827 1.39713 9.85293 1.49513L13.2296 5.01313C13.3189 5.1058 13.3689 5.23046 13.3689 5.35913V11.4698C13.3809 13.1425 12.0783 14.5091 10.4029 14.5771L5.05693 14.5778Z"
            fill="#737373" />
    </g>
    <path fill-rule="evenodd" clip-rule="evenodd"
        d="M12.8657 5.98998H11.029C9.809 5.98665 8.817 4.99198 8.817 3.77332V1.83398C8.817 1.55798 9.041 1.33398 9.317 1.33398C9.593 1.33398 9.817 1.55798 9.817 1.83398V3.77332C9.817 4.44265 10.3617 4.98798 11.0303 4.98998H12.8657C13.1417 4.98998 13.3657 5.21398 13.3657 5.48998C13.3657 5.76598 13.1417 5.98998 12.8657 5.98998Z"
        fill="#737373" />
    <path fill-rule="evenodd" clip-rule="evenodd"
        d="M9.19247 10.7393H5.59247C5.31647 10.7393 5.09247 10.5153 5.09247 10.2393C5.09247 9.96326 5.31647 9.73926 5.59247 9.73926H9.19247C9.46847 9.73926 9.69247 9.96326 9.69247 10.2393C9.69247 10.5153 9.46847 10.7393 9.19247 10.7393Z"
        fill="#737373" />
    <path fill-rule="evenodd" clip-rule="evenodd"
        d="M7.8292 8.23828H5.59187C5.31587 8.23828 5.09187 8.01428 5.09187 7.73828C5.09187 7.46228 5.31587 7.23828 5.59187 7.23828H7.8292C8.1052 7.23828 8.3292 7.46228 8.3292 7.73828C8.3292 8.01428 8.1052 8.23828 7.8292 8.23828Z"
        fill="#737373" />
</svg>